Coordinates
version=1
nRows=13
nColumns=34
inDegrees=yes

Units are S.I. units (second, meters, Newtons, ...)
If the header above contains a line with 'inDegrees', this indicates whether rotational values are in degrees (yes) or radians (no).

endheader
time	pelvis_tilt	pelvis_list	pelvis_rotation	pelvis_tx	pelvis_ty	pelvis_tz	hip_flexion_r	hip_adduction_r	hip_rotation_r	knee_angle_r	ankle_angle_r	subtalar_angle_r	mtp_angle_r	hip_flexion_l	hip_adduction_l	hip_rotation_l	knee_angle_l	ankle_angle_l	subtalar_angle_l	mtp_angle_l	lumbar_extension	lumbar_bending	lumbar_rotation	arm_flex_r	arm_add_r	arm_rot_r	elbow_flex_r	pro_sup_r	arm_flex_l	arm_add_l	arm_rot_l	elbow_flex_l	pro_sup_l
      3.36666670	     -6.10520949	     -1.45174897	      1.32676401	     -1.71144681	      0.94320219	      0.42100702	      3.61532566	     -3.15931964	     -1.69812473	      0.79852562	      5.46577749	      2.97160255	      0.00000000	      5.19882935	     -3.99231451	    -13.93262531	      4.92563904	     11.10974325	     10.39631067	      0.00000000	     -6.35187173	      3.25662613	     -3.60380089	     -0.64975749	     -7.27417966	    -32.73185329	     29.51888488	     84.29744157	     -7.09623606	     -5.38097310	    -54.30537150	     35.37816667	    105.18429016
      3.38333330	     -6.08639610	     -1.52743327	      1.46155583	     -1.71049198	      0.94267311	      0.41899250	      3.61513803	     -3.19085506	     -1.66961762	      0.86808758	      5.45502041	      2.98498638	      0.00000000	      5.19232532	     -3.93884942	    -13.93774527	      4.88591607	     11.12828697	     10.39511738	      0.00000000	     -6.34971206	      3.24543538	     -3.53417222	     -0.59780975	     -7.26621431	    -32.72368080	     29.53286945	     84.30223629	     -7.14783619	     -5.36205020	    -54.29407232	     35.36769045	    105.18987642
      3.40000000	     -5.98378543	     -1.52373247	      1.57284588	     -1.70893276	      0.94180801	      0.41672016	      3.66744613	     -3.34688551	     -1.63218897	      1.32401616	      5.54084371	      2.94454292	      0.00000000	      4.96740942	     -3.76854895	    -13.68859868	      4.71216977	     11.28579580	     10.51499660	      0.00000000	     -6.34820842	      3.19996696	     -3.50996681	     -0.57578057	     -7.29377099	    -32.70774925	     29.55008685	     84.32947306	     -7.30094932	     -5.22136951	    -54.17570940	     35.34403762	    105.23020885
      3.41666670	     -5.99474721	     -1.60341448	      1.74905812	     -1.70775602	      0.94067801	      0.41442290	      3.62732114	     -3.39662216	     -1.59813234	      1.43705685	      5.57596367	      2.94230906	      0.00000000	      4.93361726	     -3.72451689	    -13.68236737	      4.68382877	     11.31667587	     10.51855404	      0.00000000	     -6.34276728	      3.15073919	     -3.43258513	     -0.53044368	     -7.28546780	    -32.69897796	     29.56662011	     84.33473842	     -7.38137607	     -5.21250721	    -54.16702242	     35.32723086	    105.23560761
      3.43333330	     -5.80086913	     -1.44779261	      1.89997318	     -1.70739154	      0.94004375	      0.41166096	      3.65717561	     -3.75499922	     -1.57399714	      2.28388332	      6.38007312	      2.62384695	      0.00000000	      4.51506060	     -3.35653099	    -13.31728214	      4.38764319	     11.69252408	     10.68785917	      0.00000000	     -6.45138788	      2.83959353	     -3.55445108	     -0.57892674	     -7.24501425	    -32.65234971	     29.61240283	     84.39074301	     -7.69466352	     -5.19857640	    -53.96474846	     35.28921330	    105.30827536
      3.45000000	     -5.62623536	     -1.34566079	      2.06692216	     -1.70811585	      0.93922081	      0.40876975	      3.61295963	     -4.06401948	     -1.47195478	      2.90268933	      6.86743288	      2.46515912	      0.00000000	      4.29379888	     -3.09894033	    -13.25134213	      4.32681507	     11.75491765	     10.73309072	      0.00000000	     -6.55562977	      2.55704203	     -3.67870354	     -0.49508845	     -7.14331359	    -32.57937662	     29.70052625	     84.45086197	     -7.87325229	     -5.23515835	    -53.75577060	     35.27776835	    105.37795593
      3.46666670	     -5.48480617	     -1.20030752	      2.24994167	     -1.70929263	      0.93920427	      0.40564061	      3.59670145	     -4.45226993	     -1.36968936	      3.46515622	      7.36620464	      2.26240494	      0.00000000	      4.08134322	     -2.75504071	    -13.16049843	      4.09689441	     11.75687943	     10.78093129	      0.00000000	     -6.67930249	      2.31436616	     -3.78239255	     -0.36791541	     -7.02279767	    -32.48193140	     29.79942105	     84.52414416	     -8.01216711	     -5.31345033	    -53.51747167	     35.26597262	    105.45439913
      3.48333330	     -5.44844366	     -1.29651942	      2.46254501	     -1.71002600	      0.93923753	      0.40251149	      3.53345244	     -4.56822990	     -1.30279791	      3.58526449	      7.38387827	      2.27248835	      0.00000000	      4.10999499	     -2.69849973	    -13.18811275	      4.04341436	     11.76062349	     10.76889357	      0.00000000	     -6.65600692	      2.29167940	     -3.71038068	     -0.31281045	     -6.98809435	    -32.46570667	     29.81645310	     84.53024009	     -8.05912758	     -5.31235384	    -53.50705527	     35.25436387	    105.45866738
      3.50000000	     -5.07237655	     -0.96776200	      2.60256903	     -1.71014135	      0.93922941	      0.39942511	      3.41242249	     -5.14691959	     -0.86042046	      4.29404362	      8.13270381	      1.73958754	      0.00000000	      3.58887694	     -2.11438503	    -13.00483800	      3.63628157	     11.34605918	     10.53193933	      0.00000000	     -7.08660350	      1.77288240	     -3.93089230	     -0.05107779	     -6.72862722	    -32.09605273	     29.92797283	     84.81942867	     -8.18450219	     -5.54558955	    -52.57294498	     35.13960800	    105.72450227
      3.51666670	     -5.02326155	     -1.07978204	      2.79904580	     -1.70935343	      0.93938604	      0.39613080	      3.37255569	     -5.24184034	     -0.81197743	      4.40390858	      8.13970380	      1.73996375	      0.00000000	      3.61278676	     -2.04807649	    -13.01371224	      3.61701132	     11.35750510	     10.52812697	      0.00000000	     -7.05932431	      1.74048183	     -3.86530669	     -0.01529155	     -6.70088415	    -32.08318375	     29.93349739	     84.82504987	     -8.21643107	     -5.53610262	    -52.56324293	     35.12872497	    105.72758008
      3.53333330	     -4.82790626	     -0.90957326	      3.10062375	     -1.70894957	      0.93901714	      0.39244232	      3.38959044	     -5.67673337	     -0.86262478	      5.09241358	      8.65507313	      1.29147093	      0.00000000	      3.51049580	     -1.64893329	    -12.77881288	      3.68229091	     11.41424926	     10.58609873	      0.00000000	     -7.16406805	      1.32776299	     -3.93074899	     -0.12394437	     -6.53558826	    -32.01280880	     29.81682695	     84.88279109	     -8.08075384	     -5.48095718	    -52.36555622	     35.08153978	    105.77265968
      3.55000000	     -4.67071257	     -0.86442086	      3.26609301	     -1.70944352	      0.93885408	      0.38886554	      3.36024952	     -5.96741457	     -0.77138157	      5.54369302	      8.88488031	      0.99031434	      0.00000000	      3.45714752	     -1.39005394	    -12.72383428	      3.78282526	     11.40173775	     10.48108649	      0.00000000	     -7.27427856	      1.11080898	     -3.88130326	     -0.12581130	     -6.40121509	    -31.93673555	     29.68957014	     84.95483321	     -8.00837890	     -5.53606927	    -52.13417076	     35.01172476	    105.82909932
      3.56666670	     -4.62179714	     -0.99746792	      3.38338514	     -1.71083282	      0.93825728	      0.38518846	      3.30838603	     -6.06678318	     -0.73258538	      5.63206841	      8.87148990	      0.98802986	      0.00000000	      3.47718403	     -1.30206729	    -12.74754153	      3.80789638	     11.40253164	     10.46263063	      0.00000000	     -7.25083719	      1.08883025	     -3.82343775	     -0.09797502	     -6.35545042	    -31.92227807	     29.68361147	     84.96105101	     -8.03220797	     -5.50851763	    -52.11551328	     34.99329062	    105.83339957
